<?xml version="1.0" standalone="no"?><!DOCTYPE svg PUBLIC "-//W3C//DTD SVG 1.1//EN" "http://www.w3.org/Graphics/SVG/1.1/DTD/svg11.dtd"><svg t="1553482102213" class="icon" style="" viewBox="0 0 1024 1024" version="1.1" xmlns="http://www.w3.org/2000/svg" p-id="1141" xmlns:xlink="http://www.w3.org/1999/xlink" width="128" height="128"><defs><style type="text/css"></style></defs><path d="M768 320l-64 0L704 288C704 164.48 603.52 64 480 64 356.48 64 256 164.48 256 288L256 320 192 320C121.6 320 64 377.6 64 448l0 384c0 70.4 57.6 128 128 128l576 0c70.4 0 128-57.6 128-128L896 448C896 377.6 838.4 320 768 320zM288 512C270.08 512 256 497.92 256 480 256 462.08 270.08 448 288 448 305.92 448 320 462.08 320 480 320 497.92 305.92 512 288 512zM320 288C320 199.68 391.68 128 480 128 568.32 128 640 199.68 640 288L640 320 320 320 320 288zM672 512C654.08 512 640 497.92 640 480 640 462.08 654.08 448 672 448 689.92 448 704 462.08 704 480 704 497.92 689.92 512 672 512z" p-id="1142"></path></svg>